<svg xmlns="http://www.w3.org/2000/svg" version="1.0" preserveAspectRatio="xMidYMid meet" viewBox="81 81.17 350 349.83"><g transform="translate(0.000000,512.000000) scale(0.100000,-0.100000)" fill="#000000" stroke="none"><path d="M817 4303 c-4 -3 -7 -147 -7 -320 l0 -313 160 0 160 0 0 -1270 0 -1270 160 0 160 0 0 -160 0 -160 1110 0 1110 0 0 160 0 160 160 0 160 0 0 1270 0 1270 160 0 160 0 -2 318 -3 317 -1741 3 c-957 1 -1744 -1 -1747 -5z m3173 -473 l0 -160 -1430 0 -1430 0 0 160 0 160 1430 0 1430 0 0 -160z m-320 -1590 l0 -1110 -1110 0 -1110 0 0 1110 0 1110 1110 0 1110 0 0 -1110z"></path><path d="M1770 2245 l0 -795 155 0 155 0 0 795 0 795 -155 0 -155 0 0 -795z"></path><path d="M2400 2245 l0 -795 160 0 160 0 0 795 0 795 -160 0 -160 0 0 -795z"></path><path d="M3040 2245 l0 -795 155 0 155 0 0 795 0 795 -155 0 -155 0 0 -795z"></path></g></svg>