<svg xmlns="http://www.w3.org/2000/svg" version="1.0" preserveAspectRatio="xMidYMid meet" viewBox="0.7 0.1 768.7 830.8">

<g transform="translate(0.000000,831.000000) scale(0.100000,-0.100000)" fill="#000000" stroke="none">
<path d="M6527 8234 l-69 -74 -78 65 -78 65 -67 -75 -67 -75 -36 31 c-21 17 -56 46 -78 65 l-42 34 -67 -70 c-38 -38 -72 -70 -76 -70 -5 0 -38 27 -75 60 -36 33 -70 60 -74 60 -4 0 -142 -152 -306 -337 -165 -185 -345 -389 -401 -452 -57 -63 -103 -120 -103 -127 0 -12 61 -74 114 -115 l29 -23 31 35 c17 19 46 52 64 72 18 21 37 37 41 35 5 -2 76 -61 157 -132 l148 -129 71 76 70 76 455 -405 c250 -222 456 -410 458 -418 2 -7 -22 -42 -52 -77 -31 -35 -56 -71 -56 -79 0 -8 63 -71 140 -139 77 -69 140 -131 140 -138 0 -7 -27 -44 -60 -82 l-60 -70 42 -39 c24 -22 58 -52 76 -67 l34 -28 27 29 c32 33 650 729 726 817 27 32 50 64 50 72 0 8 31 43 70 78 l69 64 -104 112 c-58 61 -122 125 -142 142 -21 16 -38 33 -38 38 0 4 29 42 65 84 63 72 64 76 46 89 -11 8 -45 38 -76 67 l-56 53 38 45 c21 24 49 58 62 74 l24 30 -39 41 c-41 42 -360 329 -649 582 -93 82 -183 162 -200 177 l-30 28 -68 -75z"/>
<path d="M4668 7068 c-72 -80 -246 -276 -622 -702 -50 -55 -179 -202 -289 -326 -110 -124 -228 -256 -262 -295 -146 -165 -752 -847 -924 -1039 -102 -115 -222 -251 -266 -301 -44 -51 -136 -155 -204 -231 -195 -218 -398 -447 -657 -739 -366 -413 -935 -1053 -1084 -1219 l-133 -149 78 -71 77 -71 -69 -75 c-108 -119 -193 -220 -193 -230 0 -5 32 -37 70 -71 39 -35 70 -66 70 -69 0 -3 -30 -39 -66 -79 l-67 -72 72 -65 c39 -36 71 -70 71 -76 0 -8 -80 -103 -243 -285 l-20 -22 56 -51 c30 -27 65 -58 78 -69 l23 -18 -49 -54 c-27 -30 -58 -64 -69 -77 l-20 -22 78 -71 77 -71 -66 -68 c-36 -38 -65 -73 -65 -79 0 -7 16 -26 36 -43 l35 -31 -36 -37 c-20 -21 -35 -45 -33 -53 1 -9 34 -43 72 -76 l70 -60 34 40 c18 21 38 39 43 39 6 0 26 -12 46 -27 l36 -27 58 64 c32 36 58 68 59 73 1 19 31 2 95 -53 39 -33 75 -60 80 -60 6 0 34 29 64 65 29 36 61 65 71 65 9 0 47 -27 83 -60 36 -33 67 -60 70 -60 2 0 64 68 137 150 73 83 135 150 137 150 3 0 39 -28 80 -62 l76 -63 69 74 69 74 22 -20 c12 -10 43 -38 69 -61 26 -23 53 -42 61 -42 7 0 71 65 142 145 71 80 132 145 135 145 3 0 36 -27 73 -60 38 -33 72 -60 76 -60 14 0 49 38 241 255 220 249 616 695 820 925 753 846 1363 1533 1465 1650 61 69 153 172 205 230 52 58 192 216 310 350 118 134 276 312 350 395 74 83 272 305 440 495 168 189 366 412 440 495 219 245 250 281 250 297 0 8 -65 72 -145 143 -80 71 -145 130 -145 131 0 2 29 36 65 76 36 40 65 75 64 78 0 3 -67 64 -149 135 -82 72 -149 134 -149 139 -1 5 26 40 60 78 34 38 59 75 56 82 -3 7 -97 94 -209 193 -111 99 -244 217 -295 262 -50 44 -96 81 -101 81 -6 0 -39 -32 -75 -72 l-64 -72 -153 134 -152 134 -70 -72 c-38 -40 -70 -72 -72 -72 -3 0 -71 59 -152 130 -81 72 -151 130 -155 130 -4 0 -44 -42 -91 -92z m-3779 -5037 c37 -33 103 -92 145 -130 42 -39 79 -71 83 -71 4 0 37 33 74 72 l66 73 34 -27 c19 -14 88 -74 154 -133 66 -59 191 -171 277 -248 l157 -139 -64 -71 c-36 -39 -65 -76 -65 -82 0 -5 66 -68 145 -139 80 -71 145 -133 145 -137 0 -10 -81 -103 -273 -317 -115 -127 -131 -142 -146 -129 -9 7 -44 37 -78 66 l-62 53 -38 -43 c-21 -24 -51 -58 -68 -76 l-30 -33 -75 65 c-41 36 -77 65 -80 64 -3 0 -31 -30 -63 -67 -32 -37 -93 -105 -135 -151 l-78 -84 -74 67 -75 68 -70 -77 -71 -76 -64 56 c-77 67 -231 227 -227 236 1 4 30 30 65 59 34 28 62 55 62 60 0 4 -34 39 -75 77 -41 39 -75 76 -75 82 0 6 15 28 33 48 18 21 75 84 125 141 51 57 92 108 92 114 0 6 -32 41 -70 77 l-70 66 60 69 c33 39 60 74 60 80 0 6 -30 41 -67 78 l-66 67 68 78 c165 189 331 373 337 373 4 0 39 -27 77 -59z"/>
</g>
</svg>