<svg xmlns="http://www.w3.org/2000/svg" version="1.2" baseProfile="tiny-ps" viewBox="0.7 110.74 598.54 377.69">	<title>TodoApp Flat Style Logo</title>	<style>		tspan { white-space:pre }	</style>	<path id="TODO APP " fill="#e60012" aria-label="TODO APP" d="M5.29 150.17L5.3 110.74L134.19 110.76L134.19 150.19L91.22 150.18L91.2 288.18L48.23 288.17L48.26 150.18L5.29 150.17ZM0.76 150.17L0.77 110.74L129.66 110.76L129.65 150.19L86.69 150.18L86.66 288.18L43.7 288.17L43.73 150.18L0.76 150.17ZM181.79 130.49L181.8 110.77L267.73 110.79L267.72 130.5L289.21 130.5L289.18 268.5L267.7 268.49L267.69 288.21L181.77 288.19L181.77 268.48L160.29 268.48L160.31 130.48L181.79 130.49ZM246.24 150.21L203.27 150.2L203.26 248.77L246.22 248.78L246.24 150.21ZM177.26 130.48L177.27 110.77L263.2 110.79L263.19 130.5L284.68 130.5L284.65 268.49L263.17 268.49L263.16 288.2L177.23 288.19L177.24 268.48L155.76 268.47L155.78 130.48L177.26 130.48ZM241.71 150.21L198.74 150.2L198.72 248.77L241.69 248.77L241.71 150.21ZM315.3 288.21L315.33 110.79L422.75 110.81L422.74 130.52L444.22 130.53L444.2 268.52L422.72 268.52L422.71 288.23L315.3 288.21ZM401.26 150.23L358.29 150.23L358.27 248.79L401.24 248.8L401.26 150.23ZM310.77 288.21L310.8 110.79L418.21 110.81L418.21 130.52L439.69 130.53L439.67 268.52L418.18 268.52L418.18 288.23L310.77 288.21ZM396.72 150.23L353.76 150.23L353.74 248.79L396.71 248.8L396.72 150.23ZM491.83 130.53L491.83 110.82L577.76 110.84L577.76 130.55L599.24 130.55L599.22 268.54L577.73 268.54L577.73 288.25L491.8 288.24L491.8 268.53L470.32 268.52L470.35 130.53L491.83 130.53ZM556.27 150.26L513.31 150.25L513.29 248.82L556.25 248.82L556.27 150.26ZM487.3 130.53L487.3 110.82L573.23 110.83L573.23 130.55L594.71 130.55L594.68 268.54L573.2 268.54L573.2 288.25L487.27 288.24L487.27 268.53L465.79 268.52L465.82 130.53L487.3 130.53ZM551.74 150.26L508.78 150.25L508.76 248.82L551.72 248.82L551.74 150.26ZM26.74 330.68L26.74 310.96L112.67 310.98L112.67 330.69L134.15 330.69L134.12 488.4L91.16 488.39L91.17 429.25L48.2 429.24L48.19 488.38L5.23 488.38L5.26 330.67L26.74 330.68ZM91.18 350.4L48.22 350.39L48.21 389.82L91.18 389.83L91.18 350.4ZM22.21 330.67L22.21 310.96L108.14 310.97L108.14 330.69L129.62 330.69L129.59 488.4L86.63 488.39L86.64 429.25L43.67 429.24L43.66 488.38L0.7 488.38L0.73 330.67L22.21 330.67ZM86.65 350.4L43.69 350.39L43.68 389.82L86.64 389.82L86.65 350.4ZM160.25 488.4L160.28 310.98L267.69 311L267.69 330.71L289.17 330.72L289.15 409.57L267.67 409.57L267.67 429.28L203.22 429.27L203.21 488.41L160.25 488.4ZM246.2 350.42L203.24 350.42L203.23 389.84L246.19 389.85L246.2 350.42ZM155.71 488.4L155.75 310.98L263.16 311L263.16 330.71L284.64 330.72L284.62 409.57L263.14 409.57L263.14 429.28L198.69 429.27L198.68 488.41L155.71 488.4ZM241.67 350.42L198.7 350.42L198.7 389.84L241.66 389.85L241.67 350.42ZM315.26 488.43L315.3 311.01L422.71 311.02L422.7 330.74L444.19 330.74L444.17 409.59L422.69 409.59L422.69 429.3L358.24 429.29L358.23 488.43L315.26 488.43ZM401.22 350.45L358.25 350.44L358.25 389.87L401.21 389.87L401.22 350.45ZM310.73 488.43L310.76 311.01L418.18 311.02L418.17 330.74L439.65 330.74L439.64 409.59L418.16 409.59L418.15 429.3L353.71 429.29L353.7 488.43L310.73 488.43ZM396.69 350.45L353.72 350.44L353.71 389.87L396.68 389.87L396.69 350.45Z"></path>	<path id="+ " fill="#00c3e3" aria-label="+" d="M507.68 388.21L507.69 347.69L551.85 347.7L551.84 388.22L596 388.22L595.99 428.74L551.83 428.74L551.82 469.26L507.67 469.25L507.68 428.73L463.52 428.72L463.53 388.2L507.68 388.21ZM503.03 388.21L503.03 347.69L547.19 347.69L547.18 388.21L591.34 388.22L591.33 428.74L547.18 428.74L547.17 469.26L503.01 469.25L503.02 428.73L458.86 428.72L458.87 388.2L503.03 388.21Z"></path></svg>