<svg xmlns="http://www.w3.org/2000/svg" version="1.2" baseProfile="tiny-ps" viewBox="-2.3 101.74 600.52 388.46">	<title>TodoApp Logo</title>	<style>		tspan { white-space:pre }	</style>	<path id="TodoAppShadow" fill="#000000" aria-label="TODO APP" d="M4.27 151.94L4.28 112.51L133.17 112.53L133.17 151.96L90.2 151.95L90.17 289.94L47.21 289.94L47.24 151.94L4.27 151.94ZM-0.26 151.94L-0.25 112.51L128.64 112.53L128.63 151.96L85.67 151.95L85.64 289.94L42.68 289.94L42.7 151.94L-0.26 151.94ZM180.77 132.25L180.78 112.54L266.71 112.55L266.7 132.26L288.19 132.27L288.16 270.26L266.68 270.26L266.67 289.97L180.74 289.96L180.75 270.24L159.27 270.24L159.29 132.25L180.77 132.25ZM245.22 151.97L202.25 151.97L202.23 250.53L245.2 250.54L245.22 151.97ZM176.24 132.25L176.25 112.54L262.18 112.55L262.17 132.26L283.65 132.27L283.63 270.26L262.15 270.26L262.14 289.97L176.21 289.96L176.22 270.24L154.73 270.24L154.76 132.25L176.24 132.25ZM240.69 151.97L197.72 151.97L197.7 250.53L240.67 250.54L240.69 151.97ZM314.28 289.98L314.31 112.56L421.72 112.58L421.72 132.29L443.2 132.29L443.18 270.29L421.7 270.28L421.69 290L314.28 289.98ZM400.23 152L357.27 151.99L357.25 250.56L400.22 250.57L400.23 152ZM309.75 289.98L309.78 112.56L417.19 112.57L417.19 132.29L438.67 132.29L438.65 270.28L417.16 270.28L417.16 289.99L309.75 289.98ZM395.7 152L352.74 151.99L352.72 250.56L395.68 250.56L395.7 152ZM490.81 132.3L490.81 112.59L576.74 112.6L576.74 132.31L598.22 132.32L598.19 270.31L576.71 270.31L576.71 290.02L490.78 290.01L490.78 270.29L469.3 270.29L469.33 132.3L490.81 132.3ZM555.25 152.02L512.29 152.02L512.27 250.58L555.23 250.59L555.25 152.02ZM486.28 132.3L486.28 112.59L572.21 112.6L572.21 132.31L593.69 132.32L593.66 270.31L572.18 270.31L572.18 290.02L486.25 290.01L486.25 270.29L464.77 270.29L464.79 132.3L486.28 132.3ZM550.72 152.02L507.76 152.02L507.74 250.58L550.7 250.59L550.72 152.02ZM25.72 332.44L25.72 312.73L111.65 312.74L111.65 332.45L133.13 332.46L133.1 490.16L90.14 490.16L90.15 431.02L47.18 431.01L47.17 490.15L4.21 490.14L4.24 332.44L25.72 332.44ZM90.16 352.16L47.2 352.16L47.19 391.58L90.16 391.59L90.16 352.16ZM21.19 332.44L21.19 312.73L107.12 312.74L107.12 332.45L128.6 332.46L128.57 490.16L85.61 490.16L85.62 431.02L42.65 431.01L42.64 490.15L-0.32 490.14L-0.29 332.44L21.19 332.44ZM85.63 352.16L42.67 352.16L42.66 391.58L85.62 391.59L85.63 352.16ZM159.22 490.17L159.26 312.75L266.67 312.76L266.67 332.48L288.15 332.48L288.13 411.33L266.65 411.33L266.65 431.04L202.2 431.03L202.19 490.17L159.22 490.17ZM245.18 352.19L202.22 352.18L202.21 391.61L245.17 391.61L245.18 352.19ZM154.69 490.17L154.73 312.75L262.14 312.76L262.13 332.48L283.62 332.48L283.6 411.33L262.12 411.33L262.12 431.04L197.67 431.03L197.66 490.17L154.69 490.17ZM240.65 352.19L197.68 352.18L197.68 391.61L240.64 391.61L240.65 352.19ZM314.24 490.19L314.28 312.77L421.69 312.79L421.68 332.5L443.17 332.51L443.15 411.36L421.67 411.36L421.66 431.07L357.22 431.06L357.21 490.2L314.24 490.19ZM400.2 352.21L357.23 352.21L357.23 391.63L400.19 391.64L400.2 352.21ZM309.71 490.19L309.74 312.77L417.16 312.79L417.15 332.5L438.63 332.51L438.62 411.36L417.14 411.36L417.13 431.07L352.69 431.06L352.68 490.2L309.71 490.19ZM395.67 352.21L352.7 352.21L352.69 391.63L395.66 391.64L395.67 352.21Z"></path>	<path id="TodoAppFront" fill="#e60012" aria-label="TODO APP" d="M2.29 141.17L2.3 101.74L131.19 101.76L131.19 141.19L88.22 141.18L88.2 279.18L45.23 279.17L45.26 141.18L2.29 141.17ZM-2.24 141.17L-2.23 101.74L126.66 101.76L126.65 141.19L83.69 141.18L83.66 279.18L40.7 279.17L40.73 141.18L-2.24 141.17ZM178.79 121.49L178.8 101.77L264.73 101.79L264.72 121.5L286.21 121.5L286.18 259.5L264.7 259.49L264.69 279.21L178.77 279.19L178.77 259.48L157.29 259.48L157.31 121.48L178.79 121.49ZM243.24 141.21L200.27 141.2L200.26 239.77L243.22 239.78L243.24 141.21ZM174.26 121.48L174.27 101.77L260.2 101.79L260.19 121.5L281.68 121.5L281.65 259.49L260.17 259.49L260.16 279.2L174.23 279.19L174.24 259.48L152.76 259.47L152.78 121.48L174.26 121.48ZM238.71 141.21L195.74 141.2L195.72 239.77L238.69 239.77L238.71 141.21ZM312.3 279.21L312.33 101.79L419.75 101.81L419.74 121.52L441.22 121.53L441.2 259.52L419.72 259.52L419.71 279.23L312.3 279.21ZM398.26 141.23L355.29 141.23L355.27 239.79L398.24 239.8L398.26 141.23ZM307.77 279.21L307.8 101.79L415.21 101.81L415.21 121.52L436.69 121.53L436.67 259.52L415.18 259.52L415.18 279.23L307.77 279.21ZM393.72 141.23L350.76 141.23L350.74 239.79L393.71 239.8L393.72 141.23ZM488.83 121.53L488.83 101.82L574.76 101.84L574.76 121.55L596.24 121.55L596.22 259.54L574.73 259.54L574.73 279.25L488.8 279.24L488.8 259.53L467.32 259.52L467.35 121.53L488.83 121.53ZM553.27 141.26L510.31 141.25L510.29 239.82L553.25 239.82L553.27 141.26ZM484.3 121.53L484.3 101.82L570.23 101.83L570.23 121.55L591.71 121.55L591.68 259.54L570.2 259.54L570.2 279.25L484.27 279.24L484.27 259.53L462.79 259.52L462.82 121.53L484.3 121.53ZM548.74 141.26L505.78 141.25L505.76 239.82L548.72 239.82L548.74 141.26ZM23.74 321.68L23.74 301.96L109.67 301.98L109.67 321.69L131.15 321.69L131.12 479.4L88.16 479.39L88.17 420.25L45.2 420.24L45.19 479.38L2.23 479.38L2.26 321.67L23.74 321.68ZM88.18 341.4L45.22 341.39L45.21 380.82L88.18 380.83L88.18 341.4ZM19.21 321.67L19.21 301.96L105.14 301.97L105.14 321.69L126.62 321.69L126.59 479.4L83.63 479.39L83.64 420.25L40.67 420.24L40.66 479.38L-2.3 479.38L-2.27 321.67L19.21 321.67ZM83.65 341.4L40.69 341.39L40.68 380.82L83.64 380.82L83.65 341.4ZM157.25 479.4L157.28 301.98L264.69 302L264.69 321.71L286.17 321.72L286.15 400.57L264.67 400.57L264.67 420.28L200.22 420.27L200.21 479.41L157.25 479.4ZM243.2 341.42L200.24 341.42L200.23 380.84L243.19 380.85L243.2 341.42ZM152.71 479.4L152.75 301.98L260.16 302L260.16 321.71L281.64 321.72L281.62 400.57L260.14 400.57L260.14 420.28L195.69 420.27L195.68 479.41L152.71 479.4ZM238.67 341.42L195.7 341.42L195.7 380.84L238.66 380.85L238.67 341.42ZM312.26 479.43L312.3 302.01L419.71 302.02L419.7 321.74L441.19 321.74L441.17 400.59L419.69 400.59L419.69 420.3L355.24 420.29L355.23 479.43L312.26 479.43ZM398.22 341.45L355.25 341.44L355.25 380.87L398.21 380.87L398.22 341.45ZM307.73 479.43L307.76 302.01L415.18 302.02L415.17 321.74L436.65 321.74L436.64 400.59L415.16 400.59L415.15 420.3L350.71 420.29L350.7 479.43L307.73 479.43ZM393.69 341.45L350.72 341.44L350.71 380.87L393.68 380.87L393.69 341.45Z"></path>	<path id="plusSignShadow" fill="#000000" aria-label="+" d="M504.68 392.31L504.69 351.79L548.84 351.8L548.84 392.32L592.99 392.33L592.99 432.85L548.83 432.84L548.82 473.36L504.66 473.35L504.67 432.83L460.52 432.83L460.52 392.3L504.68 392.31ZM500.02 392.31L500.03 351.79L544.19 351.8L544.18 392.32L588.34 392.32L588.33 432.85L544.17 432.84L544.16 473.36L500.01 473.35L500.01 432.83L455.86 432.82L455.87 392.3L500.02 392.31Z"></path>	<path id="plusSign" fill="#00c3e3" aria-label="+" d="M504.68 379.21L504.69 338.69L548.85 338.7L548.84 379.22L593 379.22L592.99 419.74L548.83 419.74L548.82 460.26L504.67 460.25L504.68 419.73L460.52 419.72L460.53 379.2L504.68 379.21ZM500.03 379.21L500.03 338.69L544.19 338.69L544.18 379.21L588.34 379.22L588.33 419.74L544.18 419.74L544.17 460.26L500.01 460.25L500.02 419.73L455.86 419.72L455.87 379.2L500.03 379.21Z"></path></svg>