<?xml version="1.0" standalone="no"?>
<!DOCTYPE svg PUBLIC "-//W3C//DTD SVG 20010904//EN"
 "http://www.w3.org/TR/2001/REC-SVG-20010904/DTD/svg10.dtd">
<svg version="1.0" xmlns="http://www.w3.org/2000/svg"
 width="600.000000pt" height="600.000000pt" viewBox="0 0 600.000000 600.000000"
 preserveAspectRatio="xMidYMid meet">
<metadata>
Created by potrace 1.14, written by Peter Selinger 2001-2017
</metadata>
<g transform="translate(0.000000,600.000000) scale(0.100000,-0.100000)"
fill="#000000" stroke="none">
<path d="M0 4733 l0 -253 204 0 205 0 -2 -635 c-2 -511 1 -635 11 -635 8 0 12
-12 11 -32 -1 -18 -1 -43 0 -55 l1 -23 235 0 235 0 1 283 c0 155 0 465 0 690
l0 407 214 0 215 0 0 194 c0 119 -4 197 -10 201 -5 3 -10 30 -10 58 l0 52
-655 0 -655 0 0 -252z"/>
<path d="M1764 4982 c-20 -3 -22 -9 -21 -91 0 -48 -2 -92 -6 -97 -3 -6 -49
-10 -106 -9 l-101 1 0 -70 c-5 -671 0 -1310 10 -1316 6 -4 11 -16 10 -26 -1
-11 -2 -32 -1 -49 l1 -30 95 2 95 2 1 -27 c1 -15 1 -34 0 -43 -1 -9 4 -19 12
-22 9 -3 12 -20 10 -56 l-4 -51 453 2 453 3 2 75 c0 41 2 85 2 96 1 21 6 22
101 21 55 0 103 2 106 6 3 3 6 312 6 688 0 519 -3 683 -12 689 -6 4 -11 23
-10 41 4 68 9 65 -95 64 l-95 -1 -1 25 c-1 14 -1 32 0 39 1 7 -4 19 -12 26 -9
10 -13 30 -10 60 3 33 1 46 -9 47 -49 2 -857 3 -874 1z m622 -943 l1 -437
-181 2 -181 1 -1 438 -1 437 181 -2 181 -3 1 -436z"/>
<path d="M3083 4977 c-3 -5 -5 -402 -6 -884 0 -635 3 -877 11 -882 6 -3 11
-20 10 -36 0 -17 0 -40 1 -52 l1 -23 559 0 559 0 0 83 c0 45 0 89 1 99 1 14
14 16 106 15 l105 -2 0 693 c0 454 -3 692 -10 692 -5 0 -10 24 -10 53 l0 54
-91 -2 c-100 -2 -108 3 -102 63 2 20 -1 31 -7 27 -11 -7 -13 7 -12 68 1 35 0
37 -31 38 -219 5 -1080 2 -1084 -4z m853 -934 l-1 -438 -181 -1 -181 -1 -1
430 c-1 237 1 434 4 439 3 4 85 8 183 8 l178 0 -1 -437z"/>
<path d="M4851 4980 c-4 -3 -7 -40 -7 -83 1 -117 5 -113 -109 -112 -53 1 -98
-2 -101 -6 -10 -16 -4 -1374 6 -1377 5 -2 10 -26 10 -53 0 -32 4 -49 13 -50 6
-1 47 -1 89 0 84 0 94 -6 89 -53 -1 -16 3 -32 9 -36 7 -4 12 -30 13 -59 l0
-51 451 2 451 3 1 75 c1 41 2 85 3 97 1 21 4 22 106 20 l105 -2 1 25 c5 284
-1 1354 -8 1359 -6 3 -10 23 -11 44 0 20 -1 43 -1 50 -1 10 -25 13 -96 12
-103 -1 -102 -2 -95 59 1 10 -4 22 -10 26 -7 4 -12 30 -12 59 1 41 -2 51 -16
52 -78 4 -876 3 -881 -1z m636 -937 l-2 -438 -181 -1 -181 -1 0 439 0 438 183
0 182 0 -1 -437z"/>
<path d="M188 2883 l-3 -98 -80 -2 c-44 0 -86 -2 -93 -2 -10 -1 -12 -173 -10
-843 l3 -841 215 1 c118 0 223 1 233 1 16 1 17 22 17 296 l0 295 183 0 183 0
-1 -232 c-1 -235 1 -262 15 -253 4 2 7 -18 6 -46 -1 -28 2 -53 7 -56 8 -5 367
-8 450 -4 16 1 17 46 17 791 0 520 -3 790 -10 790 -5 0 -10 24 -10 53 l0 52
-95 -2 c-82 -1 -95 1 -96 15 -4 47 -6 59 -14 76 -5 11 -9 38 -9 60 l-1 41
-452 3 -452 2 -3 -97z m645 -417 c2 -6 3 -69 3 -141 l-1 -130 -182 -1 -183 -2
0 142 0 143 179 0 c124 0 181 -3 184 -11z"/>
<path d="M1530 2958 c-6 -327 0 -1740 7 -1754 6 -10 11 -37 11 -58 1 -21 4
-41 7 -44 8 -8 456 -8 462 0 2 5 4 138 4 298 l0 290 323 0 323 0 0 83 c0 45 1
89 2 98 1 14 16 17 101 16 55 0 103 2 106 6 11 10 6 767 -4 780 -6 7 -12 35
-14 62 l-3 49 -92 -2 c-101 -1 -95 -4 -95 57 -1 14 -6 30 -12 37 -7 7 -11 31
-9 58 l4 46 -561 0 -560 0 0 -22z m855 -623 l0 -140 -181 -2 -182 -1 1 143 1
142 180 -1 181 -1 0 -140z"/>
<path d="M3079 2968 c0 -7 -1 -406 -2 -885 -2 -630 1 -874 9 -877 6 -2 11 -25
11 -50 0 -26 3 -49 6 -53 8 -7 455 -8 462 -1 3 3 5 136 6 296 l0 292 323 0
322 0 1 78 c2 137 -10 122 96 121 50 -1 98 0 105 0 15 1 18 776 2 786 -5 3
-10 28 -10 56 0 55 9 51 -112 51 -82 0 -85 2 -79 54 1 6 -5 23 -12 38 -8 14
-13 44 -11 66 l3 40 -560 0 c-440 0 -559 -3 -560 -12z m855 -507 c2 -9 4 -72
3 -141 l-2 -125 -182 -1 -182 -2 0 142 -1 143 180 0 c156 0 180 -2 184 -16z"/>
<path d="M5058 2612 l-58 -3 0 -199 0 -200 -57 -1 c-32 0 -131 0 -220 0 l-163
-1 -1 -31 c-1 -39 -1 -490 0 -498 1 -4 100 -6 221 -5 l220 1 0 -202 0 -203 30
0 c17 -1 116 -1 220 -1 105 0 201 0 215 1 l25 0 0 200 0 200 23 1 c12 0 110 1
217 2 l195 2 3 267 2 267 -177 0 c-98 0 -197 0 -220 0 l-43 1 0 200 0 200 -37
1 c-139 3 -347 4 -395 1z"/>
</g>
</svg>
